<svg xmlns="http://www.w3.org/2000/svg" viewBox="0 0 800 800">
    <style>
@keyframes a0_t { 0% { transform: translate(404.251px,391.99px) scale(1,1) translate(-215px,-215px); animation-timing-function: cubic-bezier(.17,.785,.445,.75); } 32.431% { transform: translate(404.251px,391.99px) scale(1.1,1.1) translate(-215px,-215px); } 42.16% { transform: translate(404.251px,391.99px) scale(1.1,1.1) translate(-215px,-215px); animation-timing-function: cubic-bezier(.37,.32,.07,1); } 85.941% { transform: translate(404.251px,391.99px) scale(1,1) translate(-215px,-215px); } 100% { transform: translate(404.251px,391.99px) scale(1,1) translate(-215px,-215px); } }
@keyframes a1_t { 0% { transform: translate(215px,215px) scale(1.7,1.7); animation-timing-function: cubic-bezier(.42,0,.58,1); } 100% { transform: translate(215px,215px) scale(1,1); } }
@keyframes a1_o { 0% { opacity: 0; animation-timing-function: cubic-bezier(.42,0,.58,1); } 100% { opacity: 1; } }
@keyframes a2_ft { 0% { filter: drop-shadow(0px 0px 10px rgba(173,225,225,0.00)); animation-timing-function: cubic-bezier(.42,0,1,1); } 32.431% { filter: drop-shadow(0px 0px 7px rgba(173,225,225,0.50)); } 42.16% { filter: drop-shadow(0px 0px 7px rgba(173,225,225,0.50)); animation-timing-function: cubic-bezier(0,0,.58,1); } 85.941% { filter: drop-shadow(0px 0px 10px rgba(173,225,225,0.00)); animation-timing-function: cubic-bezier(.17,.785,.445,.75); } 100% { filter: drop-shadow(0px 0px 10px rgba(173,225,225,0.00)); } }
@keyframes a3_t { 0% { transform: translate(0px,.45px); animation-timing-function: cubic-bezier(.17,.785,.445,.75); } 32.431% { transform: translate(-19px,.45px); } 42.16% { transform: translate(-19px,.45px); animation-timing-function: cubic-bezier(.37,.32,.07,1); } 85.941% { transform: translate(0px,.45px); } 100% { transform: translate(0px,.45px); } }
@keyframes a4_t { 0% { transform: rotate(135.801deg) scale(2,2) translate(-21.3px,35.6px); animation-timing-function: cubic-bezier(.42,0,1,1); } 100% { transform: rotate(0deg) scale(1,1) translate(-21.3px,35.6px); } }
@keyframes a4_f { 0% { fill: #3f464e; } 100% { fill: #ade1e1; } }
@keyframes a4_mo { 0% { offset-distance: 0%; animation-timing-function: cubic-bezier(.42,0,1,1); } 100% { offset-distance: 100%; } }
@keyframes a5_t { 0% { transform: translate(41.153px,20.5px); animation-timing-function: cubic-bezier(.17,.785,.445,.75); } 32.431% { transform: translate(25.153px,20.5px); } 42.16% { transform: translate(25.153px,20.5px); animation-timing-function: cubic-bezier(.37,.32,.07,1); } 85.941% { transform: translate(41.153px,20.5px); } 100% { transform: translate(41.153px,20.5px); } }
@keyframes a6_t { 0% { transform: rotate(-52.054deg) scale(2,2) translate(-61.094px,25.35px); animation-timing-function: cubic-bezier(.42,0,1,1); } 100% { transform: rotate(0deg) scale(1,1) translate(-61.094px,25.35px); } }
@keyframes a6_f { 0% { fill: #3f464e; } 100% { fill: #ade1e1; } }
@keyframes a6_mo { 0% { offset-distance: 0%; animation-timing-function: cubic-bezier(.42,0,1,1); } 100% { offset-distance: 100%; } }
@keyframes a7_t { 0% { transform: translate(78.753px,.45px); animation-timing-function: cubic-bezier(.17,.785,.445,.75); } 32.431% { transform: translate(65.753px,.45px); } 42.16% { transform: translate(65.753px,.45px); animation-timing-function: cubic-bezier(.37,.32,.07,1); } 85.941% { transform: translate(78.753px,.45px); } 100% { transform: translate(78.753px,.45px); } }
@keyframes a8_t { 0% { transform: rotate(145.259deg) scale(2,2) translate(-90.778px,35.3px); animation-timing-function: cubic-bezier(.42,0,1,1); } 100% { transform: rotate(0deg) scale(1,1) translate(-90.778px,35.3px); } }
@keyframes a8_f { 0% { fill: #a8b5c1; } 100% { fill: #ade1e1; } }
@keyframes a8_mo { 0% { offset-distance: 0%; animation-timing-function: cubic-bezier(.42,0,1,1); } 100% { offset-distance: 100%; } }
@keyframes a9_t { 0% { transform: translate(96.753px,.45px); animation-timing-function: cubic-bezier(.17,.785,.445,.75); } 32.431% { transform: translate(89.753px,.45px); } 42.16% { transform: translate(89.753px,.45px); animation-timing-function: cubic-bezier(.37,.32,.07,1); } 85.941% { transform: translate(96.753px,.45px); } 100% { transform: translate(96.753px,.45px); } }
@keyframes a10_t { 0% { transform: rotate(-176.653deg) scale(2,2) translate(-109.372px,35.3px); animation-timing-function: cubic-bezier(.42,0,1,1); } 100% { transform: rotate(0deg) scale(1,1) translate(-109.372px,35.3px); } }
@keyframes a10_f { 0% { fill: #a8b5c1; } 100% { fill: #ade1e1; } }
@keyframes a10_mo { 0% { offset-distance: 0%; animation-timing-function: cubic-bezier(.42,0,1,1); } 100% { offset-distance: 100%; } }
@keyframes a11_t { 0% { transform: translate(115.153px,20.35px); animation-timing-function: cubic-bezier(.17,.785,.445,.75); } 32.431% { transform: translate(113.153px,20.35px); } 42.16% { transform: translate(113.153px,20.35px); animation-timing-function: cubic-bezier(.37,.32,.07,1); } 85.941% { transform: translate(115.153px,20.35px); } 100% { transform: translate(115.153px,20.35px); } }
@keyframes a12_t { 0% { transform: rotate(-87.8deg) scale(2,2) translate(-135.266px,25.35px); animation-timing-function: cubic-bezier(.42,0,1,1); } 100% { transform: rotate(0deg) scale(1,1) translate(-135.266px,25.35px); } }
@keyframes a12_f { 0% { fill: #a8b5c1; } 100% { fill: #ade1e1; } }
@keyframes a12_mo { 0% { offset-distance: 0%; animation-timing-function: cubic-bezier(.42,0,1,1); } 100% { offset-distance: 100%; } }
@keyframes a13_t { 0% { transform: translate(169.303px,0px); animation-timing-function: cubic-bezier(.17,.785,.445,.75); } 32.431% { transform: translate(171.303px,0px); } 42.16% { transform: translate(171.303px,0px); animation-timing-function: cubic-bezier(.37,.32,.07,1); } 85.941% { transform: translate(169.303px,0px); } 100% { transform: translate(169.303px,0px); } }
@keyframes a14_t { 0% { transform: rotate(133.052deg) scale(1.857,1.403) translate(-201.994px,35.6px); animation-timing-function: cubic-bezier(.42,0,1,1); } 100% { transform: rotate(0deg) scale(1,1) translate(-201.994px,35.6px); } }
@keyframes a14_f { 0% { fill: #3f464e; } 100% { fill: #ade1e1; } }
@keyframes a14_mo { 0% { offset-distance: 0%; animation-timing-function: cubic-bezier(.42,0,1,1); } 100% { offset-distance: 100%; } }
@keyframes a15_t { 0% { transform: translate(228.153px,20.35px); animation-timing-function: cubic-bezier(.17,.785,.445,.75); } 32.431% { transform: translate(235.153px,20.35px); } 42.16% { transform: translate(235.153px,20.35px); animation-timing-function: cubic-bezier(.37,.32,.07,1); } 85.941% { transform: translate(228.153px,20.35px); } 100% { transform: translate(228.153px,20.35px); } }
@keyframes a16_t { 0% { transform: rotate(133.935deg) scale(2,2) translate(-248.328px,25.35px); animation-timing-function: cubic-bezier(.42,0,1,1); } 100% { transform: rotate(0deg) scale(1,1) translate(-248.328px,25.35px); } }
@keyframes a16_f { 0% { fill: #3f464e; } 100% { fill: #ade1e1; } }
@keyframes a16_mo { 0% { offset-distance: 0%; animation-timing-function: cubic-bezier(.42,0,1,1); } 100% { offset-distance: 100%; } }
@keyframes a17_t { 0% { transform: translate(266.504px,19.55px); animation-timing-function: cubic-bezier(.17,.785,.445,.75); } 32.431% { transform: translate(276.504px,19.55px); } 42.16% { transform: translate(276.504px,19.55px); animation-timing-function: cubic-bezier(.37,.32,.07,1); } 85.941% { transform: translate(266.504px,19.55px); } 100% { transform: translate(266.504px,19.55px); } }
@keyframes a18_t { 0% { transform: rotate(-174.525deg) scale(2,2) translate(-282.862px,25.65px); animation-timing-function: cubic-bezier(.42,0,1,1); } 100% { transform: rotate(0deg) scale(1,1) translate(-282.862px,25.65px); } }
@keyframes a18_f { 0% { fill: #a8b5c1; } 100% { fill: #ade1e1; } }
@keyframes a18_mo { 0% { offset-distance: 0%; animation-timing-function: cubic-bezier(.42,0,1,1); } 100% { offset-distance: 100%; } }
@keyframes a19_t { 0% { transform: translate(293.753px,.45px); animation-timing-function: cubic-bezier(.17,.785,.445,.75); } 32.431% { transform: translate(308.753px,.45px); } 42.16% { transform: translate(308.753px,.45px); animation-timing-function: cubic-bezier(.37,.32,.07,1); } 85.941% { transform: translate(293.753px,.45px); } 100% { transform: translate(293.753px,.45px); } }
@keyframes a20_t { 0% { transform: rotate(-154.299deg) scale(2,2) translate(-305.809px,35.3px); animation-timing-function: cubic-bezier(.42,0,1,1); } 100% { transform: rotate(0deg) scale(1,1) translate(-305.809px,35.3px); } }
@keyframes a20_f { 0% { fill: #a8b5c1; } 100% { fill: #ade1e1; } }
@keyframes a20_mo { 0% { offset-distance: 0%; animation-timing-function: cubic-bezier(.42,0,1,1); } 100% { offset-distance: 100%; } }
@keyframes a21_t { 0% { transform: translate(313.103px,.45px); animation-timing-function: cubic-bezier(.17,.785,.445,.75); } 32.431% { transform: translate(334.103px,.45px); } 42.16% { transform: translate(334.103px,.45px); animation-timing-function: cubic-bezier(.37,.32,.07,1); } 85.941% { transform: translate(313.103px,.45px); } 100% { transform: translate(313.103px,.45px); } }
@keyframes a23_t { 0% { transform: rotate(-87.416deg); } 100% { transform: rotate(0deg); } }
@keyframes a22_t { 0% { transform: scale(2,2) translate(-332.653px,35.3px); animation-timing-function: cubic-bezier(.42,0,1,1); } 100% { transform: scale(1,1) translate(-332.653px,35.3px); } }
@keyframes a22_f { 0% { fill: #a8b5c1; } 100% { fill: #ade1e1; } }
@keyframes a22_mo { 0% { offset-distance: 0%; animation-timing-function: cubic-bezier(.42,0,1,1); } 100% { offset-distance: 100%; } }
@keyframes a24_v { 0% { visibility: hidden; animation-timing-function: steps(1); } 100% { visibility: visible; animation-timing-function: steps(1); } }
    </style>
    <g filter="blur(0px)">
        <g transform="translate(404.251,391.99) translate(-215,-215)" style="animation: 6.167s linear 4.033s both a0_t infinite;">
            <ellipse rx="215" ry="215" fill="#0c1c20" opacity="0" transform="translate(215,215) scale(1.7,1.7)" style="animation: .7s linear 1.6s both a1_t, .6s linear 1.4s both a1_o;"/>
        </g>
        <g filter="drop-shadow(0px 0px 10px rgba(173,225,225,0.00))" transform="translate(228.6,349.851)" style="animation: 6.167s linear 4.033s both a2_ft infinite;">
            <g transform="translate(16.5,36.05) translate(-16.5,-35.6)" style="animation: 6.167s linear 4.033s both a3_t infinite;">
                <path fill="#3f464e" d="M4.8 0v-71.2h10.2v30.5h12.6v-30.5h10.2v71.2h-10.2v-31.7h-12.6v31.7Z" style="transform: rotate(135.801deg) scale(2,2) translate(-21.3px,35.6px); animation: 1s linear 1s both a4_t, 1s linear 1s both a4_f, 1s linear 1s both a4_mo; offset-path: path('M-61.9032,249.209C-61.9032,249.209,-119.058,161.3,16.5,35.5999'); offset-rotate: 0deg;"/>
            </g>
            <g transform="translate(56.353,46.45) translate(-15.2,-25.95)" style="animation: 6.167s linear 4.033s both a5_t infinite;">
                <path fill="#3f464e" d="M76.294-21.5h-20.2v6.9c0 1.6 .45 2.833 1.35 3.7c.9 .867 2.116 1.3 3.65 1.3c1.933 0 3.216-0.567 3.85-1.7c.633-1.133 1.016-2.267 1.15-3.4h10.2c0 4.467-1.367 8.067-4.1 10.8c-1.334 1.4-2.934 2.5-4.8 3.3c-1.867 .8-3.967 1.2-6.3 1.2c-3.2 0-5.917-0.667-8.15-2c-2.234-1.333-3.95-3.1-5.15-5.3c-0.734-1.333-1.234-2.867-1.5-4.6c-0.267-1.733-0.4-3.633-0.4-5.7v-16.7c0-2.067 .133-3.967 .4-5.7c.266-1.733 .766-3.267 1.5-4.6c1.2-2.2 2.916-3.967 5.15-5.3c2.233-1.333 4.95-2 8.15-2c2.333 0 4.45 .4 6.35 1.2c1.9 .8 3.516 1.9 4.85 3.3c2.666 3 4 6.767 4 11.3Zm-20.2-8h10v-5.8c0-1.933-0.45-3.383-1.35-4.35c-0.9-0.967-2.117-1.45-3.65-1.45c-1.534 0-2.75 .483-3.65 1.45c-0.9 .967-1.35 2.417-1.35 4.35Z" style="transform: rotate(-52.054deg) scale(2,2) translate(-61.094px,25.35px); animation: 1s linear 1s both a6_t, 1s linear 1s both a6_f, 1s linear 1s both a6_mo; offset-path: path('M85.0619,36.1981C86.1857,-125.802,-7.71097,-407.897,15.2,25.95'); offset-rotate: 0deg;"/>
            </g>
            <g transform="translate(86.353,36.35) translate(-7.6,-35.9)" style="animation: 6.167s linear 4.033s both a7_t infinite;">
                <path fill="#a8b5c1" d="M83.178-71.2h10.2v56.9c0 1.933 .35 3.25 1.05 3.95c.7 .7 2.017 1.15 3.95 1.35v9.6c-2.333 0-4.433-0.183-6.3-0.55c-1.866-0.367-3.466-1.083-4.8-2.15c-1.333-1-2.35-2.417-3.05-4.25c-0.7-1.833-1.05-4.25-1.05-7.25Z" style="transform: rotate(145.259deg) scale(2,2) translate(-90.778px,35.3px); animation: 1s linear 1s both a8_t, 1s linear 1s both a8_f, 1s linear 1s both a8_mo; offset-path: path('M137.314,-192.567C137.314,-192.567,-91.6343,-34.733,7.59991,35.9'); offset-rotate: 0deg;"/>
            </g>
            <g transform="translate(104.353,36.35) translate(-7.6,-35.9)" style="animation: 6.167s linear 4.033s both a9_t infinite;">
                <path fill="#a8b5c1" d="M101.772-71.2h10.2v56.9c0 1.933 .35 3.25 1.05 3.95c.7 .7 2.017 1.15 3.95 1.35v9.6c-2.333 0-4.433-0.183-6.3-0.55c-1.867-0.367-3.467-1.083-4.8-2.15c-1.333-1-2.35-2.417-3.05-4.25c-0.7-1.833-1.05-4.25-1.05-7.25Z" style="transform: rotate(-176.653deg) scale(2,2) translate(-109.372px,35.3px); animation: 1s linear 1s both a10_t, 1s linear 1s both a10_f, 1s linear 1s both a10_mo; offset-path: path('M241.897,-224.049C336.908,-413.876,-25.0445,-67.4837,7.59991,35.9001'); offset-rotate: 0deg;"/>
            </g>
            <g transform="translate(130.353,46.3) translate(-15.2,-25.95)" style="animation: 6.167s linear 4.033s both a11_t infinite;">
                <path fill="#a8b5c1" d="M120.066-33.7c0-2.067 .133-3.967 .4-5.7c.266-1.733 .766-3.267 1.5-4.6c1.2-2.2 2.916-3.967 5.15-5.3c2.233-1.333 4.95-2 8.15-2c3.2 0 5.916 .667 8.15 2c2.233 1.333 3.95 3.1 5.15 5.3c.733 1.333 1.233 2.867 1.5 4.6c.266 1.733 .4 3.633 .4 5.7v16.7c0 2.067-0.134 3.967-0.4 5.7c-0.267 1.733-0.767 3.267-1.5 4.6c-1.2 2.2-2.917 3.967-5.15 5.3c-2.234 1.333-4.95 2-8.15 2c-3.2 0-5.917-0.667-8.15-2c-2.234-1.333-3.95-3.1-5.15-5.3c-0.734-1.333-1.234-2.867-1.5-4.6c-0.267-1.733-0.4-3.633-0.4-5.7Zm10.2 18.3c0 1.933 .45 3.383 1.35 4.35c.9 .967 2.116 1.45 3.65 1.45c1.533 0 2.75-0.483 3.65-1.45c.9-0.967 1.35-2.417 1.35-4.35v-19.9c0-1.933-0.45-3.383-1.35-4.35c-0.9-0.967-2.117-1.45-3.65-1.45c-1.534 0-2.75 .483-3.65 1.45c-0.9 .967-1.35 2.417-1.35 4.35Z" style="transform: rotate(-87.8deg) scale(2,2) translate(-135.266px,25.35px); animation: 1s linear 1s both a12_t, 1s linear 1s both a12_f, 1s linear 1s both a12_mo; offset-path: path('M148.352,-89.363C241.597,-41.0056,67.2575,188.525,15.1999,25.9499'); offset-rotate: 0deg;"/>
            </g>
            <g transform="translate(197.353,35.6) translate(-28.05,-35.6)" style="animation: 6.167s linear 4.033s both a13_t infinite;">
                <path fill="#3f464e" d="M230.044-71.2l-10.6 71.2h-9.6l-7.8-46.2h-0.2l-7.7 46.2h-9.6l-10.6-71.2h10.8l5.1 45.2h.2l8-45.2h7.8l8.3 46.3h.2l4.9-46.3Z" style="transform: rotate(133.052deg) scale(1.85727,1.40323) translate(-201.994px,35.6px); animation: 1s linear 1s both a14_t, 1s linear 1s both a14_f, 1s linear 1s both a14_mo; offset-path: path('M-106.696,125.565C23.4473,289.581,156.366,156.103,28.05,35.6001'); offset-rotate: 0deg;"/>
            </g>
            <g transform="translate(243.353,46.3) translate(-15.2,-25.95)" style="animation: 6.167s linear 4.033s both a15_t infinite;">
                <path fill="#3f464e" d="M233.128-33.7c0-2.067 .133-3.967 .4-5.7c.267-1.733 .767-3.267 1.5-4.6c1.2-2.2 2.917-3.967 5.15-5.3c2.233-1.333 4.95-2 8.15-2c3.2 0 5.917 .667 8.15 2c2.233 1.333 3.95 3.1 5.15 5.3c.733 1.333 1.233 2.867 1.5 4.6c.267 1.733 .4 3.633 .4 5.7v16.7c0 2.067-0.133 3.967-0.4 5.7c-0.267 1.733-0.767 3.267-1.5 4.6c-1.2 2.2-2.917 3.967-5.15 5.3c-2.233 1.333-4.95 2-8.15 2c-3.2 0-5.917-0.667-8.15-2c-2.233-1.333-3.95-3.1-5.15-5.3c-0.733-1.333-1.233-2.867-1.5-4.6c-0.267-1.733-0.4-3.633-0.4-5.7Zm10.2 18.3c0 1.933 .45 3.383 1.35 4.35c.9 .967 2.117 1.45 3.65 1.45c1.533 0 2.75-0.483 3.65-1.45c.9-0.967 1.35-2.417 1.35-4.35v-19.9c0-1.933-0.45-3.383-1.35-4.35c-0.9-0.967-2.117-1.45-3.65-1.45c-1.533 0-2.75 .483-3.65 1.45c-0.9 .967-1.35 2.417-1.35 4.35Z" style="transform: rotate(133.935deg) scale(2,2) translate(-248.328px,25.35px); animation: 1s linear 1s both a16_t, 1s linear 1s both a16_f, 1s linear 1s both a16_mo; offset-path: path('M-228.744,170.674C-216.504,188.76,109.347,171.175,15.2,25.95'); offset-rotate: 0deg;"/>
            </g>
            <g transform="translate(278.353,45.2) translate(-11.85,-25.65)" style="animation: 6.167s linear 4.033s both a17_t infinite;">
                <path fill="#a8b5c1" d="M271.013 0v-50.7h10.199v5.4c2.067-1.867 4.1-3.333 6.1-4.4c2-1.067 4.467-1.6 7.4-1.6v10.8c-1-0.4-2.033-0.6-3.1-0.6c-1.066 0-2.216 .183-3.449 .55c-1.234 .367-2.351 .983-3.351 1.85c-1.066 .867-1.933 2-2.6 3.4c-0.666 1.4-1 3.133-1 5.2v30.1Z" style="transform: rotate(-174.525deg) scale(2,2) translate(-282.862px,25.65px); animation: 1s linear 1s both a18_t, 1s linear 1s both a18_f, 1s linear 1s both a18_mo; offset-path: path('M38.5816,26.7796C257.677,96.9566,238.569,-82.1034,11.8496,25.65'); offset-rotate: 0deg;"/>
            </g>
            <g transform="translate(301.353,36.35) translate(-7.6,-35.9)" style="animation: 6.167s linear 4.033s both a19_t infinite;">
                <path fill="#a8b5c1" d="M298.209-71.2h10.2v56.9c0 1.933 .35 3.25 1.05 3.95c.7 .7 2.017 1.15 3.95 1.35v9.6c-2.333 0-4.433-0.183-6.3-0.55c-1.866-0.367-3.466-1.083-4.8-2.15c-1.333-1-2.35-2.417-3.05-4.25c-0.7-1.833-1.05-4.25-1.05-7.25Z" style="transform: rotate(-154.299deg) scale(2,2) translate(-305.809px,35.3px); animation: 1s linear 1s both a20_t, 1s linear 1s both a20_f, 1s linear 1s both a20_mo; offset-path: path('M157.386,-201.484C7.108,-340.022,-152.531,0.400572,7.60003,35.8999'); offset-rotate: 0deg;"/>
            </g>
            <g transform="translate(328.353,36.35) translate(-15.25,-35.9)" style="animation: 6.167s linear 4.033s both a21_t infinite;">
                <g style="animation: 1s linear 1s both a23_t ,1s linear 1s both a22_mo; offset-path: path('M46.3231,-64.6471C227.973,132.459,111.95,184.204,15.25,35.9'); offset-rotate: 0deg;">
                    <path fill="#a8b5c1" d="M327.603-16.5c0 2.067 .4 3.733 1.2 5c.8 1.267 2.067 1.9 3.8 1.9c1.533 0 2.767-0.583 3.7-1.75c.933-1.167 1.4-2.683 1.4-4.55v-19.7c0-1.6-0.483-2.917-1.45-3.95c-0.967-1.033-2.183-1.55-3.65-1.55c-1.933 0-3.25 .6-3.95 1.8c-0.7 1.2-1.05 2.6-1.05 4.2Zm10.1 16.5v-4.6c-0.667 .733-1.3 1.417-1.9 2.05c-0.6 .633-1.267 1.183-2 1.65c-0.733 .467-1.567 .833-2.5 1.1c-0.933 .267-2.033 .4-3.3 .4c-4.267 0-7.233-1.6-8.9-4.8c-0.6-1.133-1.033-2.533-1.3-4.2c-0.267-1.667-0.4-3.9-0.4-6.7v-19.3c0-3.667 .1-6.367 .3-8.1c.4-3.333 1.967-5.833 4.7-7.5c1.267-0.867 3.167-1.3 5.7-1.3c2 0 3.783 .45 5.35 1.35c1.567 .9 2.917 2.183 4.05 3.85h.2v-25.1h10.2v71.2Z" style="transform: rotate(-87.416deg) scale(2,2) translate(-332.653px,35.3px); animation: 1s linear 1s both a22_t, 1s linear 1s both a22_f;"/>
                </g>
            </g>
        </g>
        <g visibility="hidden" transform="translate(276.648,670.99)" style="animation: 180s linear forwards a24_v;">
            <path fill="#ade1e1" d="M12.541 6.15h-3.06v-0.69c0-0.7-0.165-1.305-0.495-1.815c-0.33-0.51-0.885-0.765-1.665-0.765c-0.42 0-0.76 .08-1.02 .24c-0.26 .16-0.47 .36-0.63 .6c-0.16 .26-0.27 .555-0.33 .885c-0.06 .33-0.09 .675-0.09 1.035c0 .42 .015 .77 .045 1.05c.03 .28 .105 .53 .225 .75c.12 .22 .295 .41 .525 .57c.23 .16 .545 .32 .945 .48l2.34 .93c.681 .26 1.231 .565 1.651 .915c.42 .35 .749 .755 .99 1.215c.22 .48 .37 1.025 .45 1.635c.08 .61 .12 1.305 .12 2.085c0 .9-0.09 1.735-0.27 2.505c-0.18 .77-0.47 1.425-0.87 1.965c-0.42 .56-0.97 1-1.651 1.32c-0.68 .32-1.51 .48-2.49 .48c-0.74 0-1.43-0.13-2.07-0.39c-0.64-0.26-1.19-0.62-1.65-1.08c-0.46-0.46-0.825-0.995-1.095-1.605c-0.27-0.61-0.405-1.275-0.405-1.995v-1.14h3.06v.96c0 .56 .165 1.065 .495 1.515c.33 .45 .885 .675 1.665 .675c.52 0 .925-0.075 1.215-0.225c.29-0.15 .515-0.365 .675-0.645c.16-0.28 .255-0.615 .285-1.005c.03-0.39 .045-0.825 .045-1.305c0-0.56-0.02-1.02-0.06-1.38c-0.04-0.36-0.12-0.65-0.24-0.87c-0.14-0.22-0.325-0.4-0.555-0.54c-0.23-0.14-0.535-0.29-0.915-0.45l-2.19-0.9c-1.32-0.54-2.205-1.255-2.655-2.145c-0.45-0.89-0.675-2.005-0.675-3.345c0-0.8 .11-1.56 .33-2.28c.22-0.72 .55-1.34 .99-1.86c.42-0.52 .955-0.935 1.605-1.245c.65-0.31 1.425-0.465 2.325-0.465c.76 0 1.455 .14 2.085 .42c.631 .28 1.176 .65 1.636 1.11c.92 .96 1.38 2.06 1.38 3.3Zm2.092 15.21v-21.36h3.06v7.62h.06c.32-0.48 .705-0.875 1.155-1.185c.45-0.31 1.025-0.465 1.725-0.465c.38 0 .76 .065 1.14 .195c.38 .13 .72 .345 1.02 .645c.3 .3 .54 .685 .72 1.155c.18 .47 .27 1.045 .27 1.725v11.67h-3.06v-10.53c0-0.56-0.13-1-0.39-1.32c-0.26-0.32-0.63-0.48-1.11-0.48c-0.58 0-0.98 .18-1.2 .54c-0.22 .36-0.33 .88-0.33 1.56v10.23Zm11.387-10.11c0-0.62 .04-1.19 .12-1.71c.08-0.52 .23-0.98 .45-1.38c.36-0.66 .875-1.19 1.545-1.59c.67-0.4 1.485-0.6 2.445-0.6c.96 0 1.775 .2 2.445 .6c.67 .4 1.185 .93 1.545 1.59c.22 .4 .37 .86 .45 1.38c.08 .52 .12 1.09 .12 1.71v5.01c0 .62-0.04 1.19-0.12 1.71c-0.08 .52-0.23 .98-0.45 1.38c-0.36 .66-0.875 1.19-1.545 1.59c-0.67 .4-1.485 .6-2.445 .6c-0.96 0-1.775-0.2-2.445-0.6c-0.67-0.4-1.185-0.93-1.545-1.59c-0.22-0.4-0.37-0.86-0.45-1.38c-0.08-0.52-0.12-1.09-0.12-1.71Zm3.06 5.49c0 .58 .135 1.015 .405 1.305c.27 .29 .635 .435 1.095 .435c.46 0 .825-0.145 1.095-0.435c.27-0.29 .405-0.725 .405-1.305v-5.97c0-0.58-0.135-1.015-0.405-1.305c-0.27-0.29-0.635-0.435-1.095-0.435c-0.46 0-0.825 .145-1.095 .435c-0.27 .29-0.405 .725-0.405 1.305Zm17.453-10.59v15.21h-3.06v-1.47h-0.06c-0.32 .48-0.705 .875-1.155 1.185c-0.45 .31-1.025 .465-1.725 .465c-0.38 0-0.76-0.065-1.14-0.195c-0.38-0.13-0.72-0.345-1.02-0.645c-0.3-0.3-0.54-0.685-0.72-1.155c-0.18-0.47-0.27-1.045-0.27-1.725v-11.67h3.06v10.53c0 .56 .13 1 .39 1.32c.26 .32 .63 .48 1.11 .48c.58 0 .98-0.18 1.2-0.54c.22-0.36 .33-0.88 .33-1.56v-10.23Zm2.327-6.15h3.06v17.07c0 .58 .105 .975 .315 1.185c.21 .21 .605 .345 1.185 .405v2.88c-0.7 0-1.33-0.055-1.89-0.165c-0.56-0.11-1.04-0.325-1.44-0.645c-0.4-0.3-0.705-0.725-0.915-1.275c-0.21-0.55-0.315-1.275-0.315-2.175Zm8.818 16.41c0 .62 .12 1.12 .36 1.5c.24 .38 .62 .57 1.14 .57c.46 0 .83-0.175 1.11-0.525c.28-0.35 .42-0.805 .42-1.365v-5.91c0-0.48-0.145-0.875-0.435-1.185c-0.29-0.31-0.655-0.465-1.095-0.465c-0.58 0-0.975 .18-1.185 .54c-0.21 .36-0.315 .78-0.315 1.26Zm3.03 4.95v-1.38c-0.2 .22-0.39 .425-0.57 .615c-0.18 .19-0.38 .355-0.6 .495c-0.22 .14-0.47 .25-0.75 .33c-0.28 .08-0.61 .12-0.99 .12c-1.28 0-2.17-0.48-2.67-1.44c-0.18-0.34-0.31-0.76-0.39-1.26c-0.08-0.5-0.12-1.17-0.12-2.01v-5.79c0-1.1 .03-1.91 .09-2.43c.12-1 .59-1.75 1.41-2.25c.38-0.26 .95-0.39 1.71-0.39c.6 0 1.135 .135 1.605 .405c.47 .27 .875 .655 1.215 1.155h.06v-7.53h3.06v21.36Zm5.566 0v-15.21h3.06v1.47h.06c.32-0.48 .705-0.875 1.155-1.185c.45-0.31 1.025-0.465 1.725-0.465c.38 0 .76 .065 1.14 .195c.38 .13 .72 .345 1.02 .645c.3 .3 .54 .685 .72 1.155c.18 .47 .27 1.045 .27 1.725v11.67h-3.06v-10.53c0-0.56-0.13-1-0.39-1.32c-0.26-0.32-0.63-0.48-1.11-0.48c-0.58 0-0.98 .18-1.2 .54c-0.22 .36-0.33 .88-0.33 1.56v10.23Zm11.986-16.08v-5.28h2.4v5.28Zm5.248 .87v-4.62h3.06v4.62h1.89v2.4h-1.89v8.43c0 .36 .035 .64 .105 .84c.07 .2 .185 .35 .345 .45c.16 .1 .355 .16 .585 .18c.23 .02 .515 .03 .855 .03v2.88h-1.26c-0.7 0-1.285-0.11-1.755-0.33c-0.47-0.22-0.845-0.5-1.125-0.84c-0.28-0.34-0.485-0.725-0.615-1.155c-0.13-0.43-0.195-0.845-0.195-1.245v-9.24h-1.53v-2.4Zm10.398 0h3.24l2.1 9.48h.06l2.069-9.48h3.15l-4.379 17.85c-0.16 .68-0.385 1.24-0.675 1.68c-0.29 .44-0.625 .8-1.005 1.08c-0.38 .28-0.785 .475-1.215 .585c-0.43 .11-0.875 .165-1.335 .165h-0.84v-2.88h.69c.3 0 .56-0.04 .78-0.12c.22-0.08 .42-0.26 .6-0.54c.16-0.28 .31-0.675 .45-1.185c.14-0.51 .3-1.215 .48-2.115Zm11.379 5.1c0-0.62 .04-1.19 .12-1.71c.08-0.52 .23-0.98 .45-1.38c.36-0.66 .875-1.19 1.545-1.59c.67-0.4 1.485-0.6 2.445-0.6c.96 0 1.775 .2 2.445 .6c.67 .4 1.185 .93 1.545 1.59c.22 .4 .37 .86 .45 1.38c.08 .52 .12 1.09 .12 1.71v5.01c0 .62-0.04 1.19-0.12 1.71c-0.08 .52-0.23 .98-0.45 1.38c-0.36 .66-0.875 1.19-1.545 1.59c-0.67 .4-1.485 .6-2.445 .6c-0.96 0-1.775-0.2-2.445-0.6c-0.67-0.4-1.185-0.93-1.545-1.59c-0.22-0.4-0.37-0.86-0.45-1.38c-0.08-0.52-0.12-1.09-0.12-1.71Zm3.06 5.49c0 .58 .135 1.015 .405 1.305c.27 .29 .635 .435 1.095 .435c.46 0 .825-0.145 1.095-0.435c.27-0.29 .405-0.725 .405-1.305v-5.97c0-0.58-0.135-1.015-0.405-1.305c-0.27-0.29-0.635-0.435-1.095-0.435c-0.46 0-0.825 .145-1.095 .435c-0.27 .29-0.405 .725-0.405 1.305Zm17.454-10.59v15.21h-3.061v-1.47h-0.059c-0.321 .48-0.706 .875-1.155 1.185c-0.45 .31-1.025 .465-1.725 .465c-0.381 0-0.761-0.065-1.141-0.195c-0.38-0.13-0.72-0.345-1.019-0.645c-0.3-0.3-0.54-0.685-0.721-1.155c-0.179-0.47-0.269-1.045-0.269-1.725v-11.67h3.059v10.53c0 .56 .13 1 .39 1.32c.26 .32 .63 .48 1.11 .48c.581 0 .981-0.18 1.2-0.54c.22-0.36 .33-0.88 .33-1.56v-10.23Zm8.084 15.21v-21.36h3.06v7.53h.06c.34-0.5 .745-0.885 1.215-1.155c.47-0.27 1.005-0.405 1.605-0.405c.74 0 1.315 .13 1.725 .39c.41 .26 .745 .59 1.005 .99c.2 .32 .33 .74 .39 1.26c.06 .52 .09 1.33 .09 2.43v5.79c0 .84-0.04 1.51-0.12 2.01c-0.08 .5-0.21 .92-0.39 1.26c-0.52 .96-1.41 1.44-2.67 1.44c-0.76 0-1.34-0.15-1.74-0.45c-0.4-0.3-0.79-0.67-1.17-1.11v1.38Zm6.09-10.53c0-0.48-0.105-0.9-0.315-1.26c-0.21-0.36-0.605-0.54-1.185-0.54c-0.44 0-0.805 .155-1.095 .465c-0.29 .31-0.435 .705-0.435 1.185v5.91c0 .56 .14 1.015 .42 1.365c.28 .35 .65 .525 1.11 .525c.52 0 .9-0.19 1.14-0.57c.24-0.38 .36-0.88 .36-1.5Zm14.416 4.08h-6.06v2.07c0 .48 .135 .85 .405 1.11c.27 .26 .635 .39 1.095 .39c.58 0 .965-0.17 1.155-0.51c.19-0.34 .305-0.68 .345-1.02h3.06c0 1.34-0.41 2.42-1.23 3.24c-0.4 .42-0.88 .75-1.44 .99c-0.56 .24-1.19 .36-1.89 .36c-0.96 0-1.775-0.2-2.445-0.6c-0.67-0.4-1.185-0.93-1.545-1.59c-0.22-0.4-0.37-0.86-0.45-1.38c-0.08-0.52-0.12-1.09-0.12-1.71v-5.01c0-0.62 .04-1.19 .12-1.71c.08-0.52 .23-0.98 .45-1.38c.36-0.66 .875-1.19 1.545-1.59c.67-0.4 1.485-0.6 2.445-0.6c.7 0 1.335 .12 1.905 .36c.57 .24 1.055 .57 1.455 .99c.8 .9 1.2 2.03 1.2 3.39Zm-6.06-2.4h3v-1.74c0-0.58-0.135-1.015-0.405-1.305c-0.27-0.29-0.635-0.435-1.095-0.435c-0.46 0-0.825 .145-1.095 .435c-0.27 .29-0.405 .725-0.405 1.305Zm28.672-6.36l-3.6 15.21h-2.7l-1.68-9.03h-0.06l-1.68 9.03h-2.7l-3.6-15.21h3.24l1.86 9.45h.06l1.71-9.45h2.4l1.62 9.45h.06l1.83-9.45Zm.831 5.1c0-0.62 .04-1.19 .12-1.71c.08-0.52 .23-0.98 .45-1.38c.36-0.66 .875-1.19 1.545-1.59c.67-0.4 1.485-0.6 2.445-0.6c.96 0 1.775 .2 2.445 .6c.67 .4 1.185 .93 1.545 1.59c.22 .4 .37 .86 .45 1.38c.08 .52 .12 1.09 .12 1.71v5.01c0 .62-0.04 1.19-0.12 1.71c-0.08 .52-0.23 .98-0.45 1.38c-0.36 .66-0.875 1.19-1.545 1.59c-0.67 .4-1.485 .6-2.445 .6c-0.96 0-1.775-0.2-2.445-0.6c-0.67-0.4-1.185-0.93-1.545-1.59c-0.22-0.4-0.37-0.86-0.45-1.38c-0.08-0.52-0.12-1.09-0.12-1.71Zm3.06 5.49c0 .58 .135 1.015 .405 1.305c.27 .29 .635 .435 1.095 .435c.46 0 .825-0.145 1.095-0.435c.27-0.29 .405-0.725 .405-1.305v-5.97c0-0.58-0.135-1.015-0.405-1.305c-0.27-0.29-0.635-0.435-1.095-0.435c-0.46 0-0.825 .145-1.095 .435c-0.27 .29-0.405 .725-0.405 1.305Zm8.303 4.62v-15.21h3.06v1.62c.62-0.56 1.23-1 1.83-1.32c.6-0.32 1.34-0.48 2.22-0.48v3.24c-0.3-0.12-0.61-0.18-0.93-0.18c-0.32 0-0.665 .055-1.035 .165c-0.37 .11-0.705 .295-1.005 .555c-0.32 .26-0.58 .6-0.78 1.02c-0.2 .42-0.3 .94-0.3 1.56v9.03Zm8.328 0v-21.36h3.061v12.78h.06l3.69-6.63h3.06l-3.631 6.18l4.381 9.03h-3.33l-2.761-6.57l-1.469 2.31v4.26Zm11.657 0v-15.21h3.06v15.21Zm0-18.3v-3.06h3.06v3.06Zm5.578 18.3v-15.21h3.06v1.47h.06c.32-0.48 .705-0.875 1.155-1.185c.45-0.31 1.025-0.465 1.725-0.465c.38 0 .76 .065 1.14 .195c.38 .13 .72 .345 1.02 .645c.3 .3 .54 .685 .72 1.155c.18 .47 .27 1.045 .27 1.725v11.67h-3.06v-10.53c0-0.56-0.13-1-0.39-1.32c-0.26-0.32-0.63-0.48-1.11-0.48c-0.58 0-0.98 .18-1.2 .54c-0.22 .36-0.33 .88-0.33 1.56v10.23Zm14.716 1.77c.02 .36 .165 .7 .435 1.02c.27 .32 .665 .48 1.185 .48c.5 0 .86-0.155 1.08-0.465c.22-0.31 .33-0.705 .33-1.185v-3h-0.06c-0.34 .5-0.745 .885-1.215 1.155c-0.47 .27-1.015 .405-1.635 .405c-1.28 0-2.17-0.48-2.67-1.44c-0.18-0.34-0.31-0.76-0.39-1.26c-0.08-0.5-0.12-1.17-0.12-2.01v-5.79c0-1.1 .03-1.91 .09-2.43c.12-1 .59-1.75 1.41-2.25c.38-0.26 .95-0.39 1.71-0.39c.38 0 .705 .04 .975 .12c.27 .08 .515 .19 .735 .33c.22 .14 .42 .305 .6 .495c.18 .19 .37 .395 .57 .615v-1.38h3.06v17.07c0 .52-0.085 1.045-0.255 1.575c-0.17 .53-0.445 1.005-0.825 1.425c-0.38 .44-0.86 .795-1.44 1.065c-0.58 .27-1.27 .405-2.07 .405c-0.46 0-0.94-0.075-1.44-0.225c-0.5-0.15-0.96-0.405-1.38-0.765c-0.44-0.34-0.815-0.795-1.125-1.365c-0.31-0.57-0.515-1.305-0.615-2.205Zm0-6.45c0 .48 .105 .9 .315 1.26c.21 .36 .605 .54 1.185 .54c.44 0 .805-0.155 1.095-0.465c.29-0.31 .435-0.705 .435-1.185v-5.91c0-0.56-0.14-1.015-0.42-1.365c-0.28-0.35-0.65-0.525-1.11-0.525c-0.52 0-0.9 .19-1.14 .57c-0.24 .38-0.36 .88-0.36 1.5Zm8.296-10.53v-1.77c0-0.62 .12-1.21 .36-1.77c.24-0.56 .57-1.05 .99-1.47c.42-0.4 .91-0.72 1.47-0.96c.56-0.24 1.16-0.36 1.8-0.36c.74 0 1.415 .15 2.025 .45c.61 .3 1.115 .72 1.515 1.26c.2 .28 .365 .535 .495 .765c.13 .23 .235 .485 .315 .765c.14 .5 .21 1.21 .21 2.13c0 .52-0.005 .955-0.015 1.305c-0.01 .35-0.035 .655-0.075 .915c-0.04 .26-0.09 .485-0.15 .675c-0.06 .19-0.14 .365-0.24 .525l-2.07 3.54c-0.14 .24-0.26 .485-0.36 .735c-0.1 .25-0.15 .515-0.15 .795v2.4h-3.06v-2.79c0-0.44 .07-0.86 .21-1.26c.14-0.4 .32-0.79 .54-1.17l1.92-3.12c.16-0.26 .265-0.54 .315-0.84c.05-0.3 .075-0.6 .075-0.9v-1.59c0-0.42-0.145-0.78-0.435-1.08c-0.29-0.3-0.645-0.45-1.065-0.45c-0.36 0-0.71 .13-1.05 .39c-0.34 .26-0.51 .64-0.51 1.14v1.74Zm3.06 15.21v-3.06h3.06v3.06Z"/>
        </g>
    </g>
</svg>